<svg width="24.000000" height="24.000000" viewBox="0 0 24 24" fill="none" xmlns="http://www.w3.org/2000/svg" xmlns:xlink="http://www.w3.org/1999/xlink">
	<desc>
			Created with Pixso.
	</desc>
	<defs>
		<clipPath id="clip35_189">
			<rect id="Frame" rx="-0.500000" width="23.000000" height="23.000000" transform="translate(0.500000 0.500000)" fill="white" fill-opacity="0"/>
		</clipPath>
	</defs>
	<rect id="Frame" rx="-0.500000" width="23.000000" height="23.000000" transform="translate(0.500000 0.500000)" fill="#FFFFFF" fill-opacity="0"/>
	<g clip-path="url(#clip35_189)">
		<path id="Vector" d="M3.99 6.41L0.75 3.17L2.17 1.75L5.41 5L20.65 5C20.81 5 20.96 5.03 21.1 5.1C21.24 5.17 21.36 5.27 21.45 5.4C21.55 5.52 21.61 5.67 21.64 5.82C21.66 5.97 21.65 6.13 21.61 6.28L19.21 14.28C19.15 14.49 19.02 14.67 18.85 14.8C18.68 14.93 18.47 15 18.25 15L5.99 15L5.99 17L16.99 17L16.99 19L4.99 19C4.73 19 4.48 18.89 4.29 18.7C4.1 18.51 3.99 18.26 3.99 18L3.99 6.41ZM5.99 7L5.99 13L17.51 13L19.31 7L5.99 7ZM5.49 23C5.1 23 4.72 22.84 4.43 22.56C4.15 22.27 3.99 21.89 3.99 21.5C3.99 21.1 4.15 20.72 4.43 20.43C4.72 20.15 5.1 20 5.49 20C5.89 20 6.27 20.15 6.56 20.43C6.84 20.72 6.99 21.1 6.99 21.5C6.99 21.89 6.84 22.27 6.56 22.56C6.27 22.84 5.89 23 5.49 23ZM17.49 23C17.1 23 16.72 22.84 16.43 22.56C16.15 22.27 15.99 21.89 15.99 21.5C15.99 21.1 16.15 20.72 16.43 20.43C16.72 20.15 17.1 20 17.49 20C17.89 20 18.27 20.15 18.56 20.43C18.84 20.72 18.99 21.1 18.99 21.5C18.99 21.89 18.84 22.27 18.56 22.56C18.27 22.84 17.89 23 17.49 23Z" fill="#2E2E2E" fill-opacity="1.000000" fill-rule="nonzero"/>
	</g>
</svg>
