<svg width="24.000000" height="24.000000" viewBox="0 0 24 24" fill="none" xmlns="http://www.w3.org/2000/svg" xmlns:xlink="http://www.w3.org/1999/xlink">
	<desc>
			Created with Pixso.
	</desc>
	<defs>
		<clipPath id="clip35_192">
			<rect id="Frame" rx="-0.500000" width="23.000000" height="23.000000" transform="translate(0.500000 0.500000)" fill="white" fill-opacity="0"/>
		</clipPath>
	</defs>
	<rect id="Frame" rx="-0.500000" width="23.000000" height="23.000000" transform="translate(0.500000 0.500000)" fill="#FFFFFF" fill-opacity="0"/>
	<g clip-path="url(#clip35_192)">
		<path id="Vector" d="M20 22L4 22C3.73 22 3.48 21.89 3.29 21.7C3.1 21.51 3 21.26 3 21L3 3C3 2.73 3.1 2.48 3.29 2.29C3.48 2.1 3.73 2 4 2L20 2C20.26 2 20.51 2.1 20.7 2.29C20.89 2.48 21 2.73 21 3L21 21C21 21.26 20.89 21.51 20.7 21.7C20.51 21.89 20.26 22 20 22ZM19 20L19 4L5 4L5 20L19 20ZM8 7L16 7L16 9L8 9L8 7ZM8 11L16 11L16 13L8 13L8 11ZM8 15L16 15L16 17L8 17L8 15Z" fill="#2E2E2E" fill-opacity="1.000000" fill-rule="nonzero"/>
	</g>
</svg>