<svg width="184.000000" height="27.036621" viewBox="0 0 184 27.0366" fill="none" xmlns="http://www.w3.org/2000/svg" xmlns:xlink="http://www.w3.org/1999/xlink">
	<desc>
			Created with Pixso.
	</desc>
	<defs/>
	<path id="Vector" d="M125.09 24.02L113.12 24.02C112.12 24.03 111.13 23.75 110.28 23.22C109.34 22.57 108.58 21.48 108.57 19.49L108.57 7.48C108.57 6.48 108.85 5.49 109.4 4.64C110.05 3.7 111.13 2.94 113.12 2.92L125.09 2.92C126.1 2.92 127.09 3.21 127.94 3.75C128.87 4.41 129.63 5.49 129.65 7.48L129.65 19.47C129.65 20.48 129.36 21.46 128.82 22.31C128.17 23.25 127.09 24.01 125.09 24.02ZM129.99 1.7C128.59 0.6 126.87 0 125.09 0L113.12 0C112.03 -0.05 110.93 0.16 109.93 0.61C108.93 1.06 108.04 1.73 107.34 2.58C106.25 3.98 105.65 5.71 105.66 7.48L105.66 19.47C105.6 20.57 105.81 21.66 106.25 22.66C106.69 23.67 107.36 24.55 108.21 25.25C109.61 26.35 111.33 26.94 113.11 26.95L125.1 26.95C126.19 27 127.28 26.79 128.28 26.35C129.28 25.91 130.17 25.25 130.88 24.41C131.98 23 132.58 21.26 132.58 19.47L132.58 7.48C132.63 6.39 132.42 5.29 131.97 4.29C131.52 3.29 130.85 2.4 130 1.7L129.99 1.7Z" fill="#B48C50" fill-opacity="1.000000" fill-rule="nonzero"/>
	<path id="Vector" d="M61.73 1.79C60.51 0.69 58.94 0.07 57.3 0.05L39.83 0.05L39.83 2.98L57.3 2.98C58.61 3.02 61.32 3.57 61.34 7.53C61.35 11.49 58.61 12.06 57.3 12.09L45.24 12.09L45.24 15.01L57.3 15.01C58.62 15.06 61.32 15.61 61.34 19.52C61.35 23.43 58.61 24.04 57.3 24.07L39.83 24.07L39.83 27L57.3 27C58.93 26.99 60.51 26.38 61.73 25.29C63.07 24.1 64.04 22.19 64.03 19.52C64.03 17.27 63.32 15.6 61.57 13.57C63.35 11.47 64.04 9.81 64.03 7.55C64.03 4.88 63.07 2.98 61.73 1.78L61.73 1.79Z" fill="#B48C50" fill-opacity="1.000000" fill-rule="nonzero"/>
	<path id="Vector" d="M94.2 12.4L94.2 14.96L99.29 14.96L99.29 24.03C98.45 24.03 96.12 24.03 92.24 24.03C89.73 24.03 86.58 24.03 82.77 24.03C81.27 23.99 78.22 23.4 78.22 19.47L78.22 7.48C78.25 5.98 78.85 2.93 82.77 2.92L100.76 2.92L100.76 0L82.76 0C77.35 0 75.3 4.38 75.29 7.48L75.29 19.47C75.29 24.88 79.65 26.94 82.76 26.95L102.21 26.95L102.21 12.04L94.2 12.04L94.2 12.4Z" fill="#B48C50" fill-opacity="1.000000" fill-rule="nonzero"/>
	<path id="Vector" d="M138.94 19.47L138.94 0L136.01 0L136.01 19.47C136.01 24.88 140.38 26.94 143.48 26.95L154.3 26.95L154.3 24.02L143.48 24.02C141.98 23.99 138.95 23.39 138.94 19.47Z" fill="#B48C50" fill-opacity="1.000000" fill-rule="nonzero"/>
	<path id="Vector" d="M1.07 0L0 0L0 2.92L1.07 2.92C2.57 2.98 5.61 3.57 5.62 7.48L5.62 26.95L8.54 26.95L8.54 7.48C8.53 2.06 4.16 0 1.07 0Z" fill="#B48C50" fill-opacity="1.000000" fill-rule="nonzero"/>
	<path id="Vector" d="M176.53 0L157.02 0L157.02 2.92L176.53 2.92C180.45 2.92 181.03 5.98 181.07 7.48L181.07 19.47C181.07 23.39 177.97 23.99 176.47 24.02C172.66 24.02 169.5 24.02 167 24.02C163.11 24.02 160.78 24.02 159.95 24.02L159.95 5.83L157.02 5.83L157.02 26.95L176.53 26.95C179.63 26.95 183.99 24.88 184 19.47L184 7.48C183.99 4.37 181.93 0 176.53 0Z" fill="#B48C50" fill-opacity="1.000000" fill-rule="nonzero"/>
	<path id="Vector" d="M29.69 0L14.37 0L14.37 2.92L29.69 2.92C33.14 2.92 33.75 5.9 33.81 7.39C33.75 8.89 33.14 11.86 29.69 11.86L18.55 11.91C17.52 11.86 16.49 12.08 15.55 12.53C14.62 12.98 13.81 13.65 13.2 14.49C12.2 15.92 11.66 17.63 11.66 19.38L11.66 19.75C11.81 22.77 13.41 27.02 18.2 27.03L36.26 27.03L36.26 24.07L18.24 24.07C17.6 24.12 16.96 23.98 16.4 23.66C15.84 23.34 15.38 22.86 15.09 22.29C14.65 21.36 14.43 20.34 14.44 19.31C14.48 17.82 15.09 14.81 18.56 14.82L29.69 14.82C34.44 14.82 36.36 10.9 36.54 7.88L36.54 7.51C36.54 5.76 36 4.05 35 2.62C34.39 1.78 33.58 1.11 32.64 0.66C31.71 0.2 30.68 -0.01 29.65 0.03L29.69 0Z" fill="#B48C50" fill-opacity="1.000000" fill-rule="nonzero"/>
</svg>